<?xml version="1.0" encoding="UTF-8"?>
<svg id="Layer_1" xmlns="http://www.w3.org/2000/svg" version="1.1" viewBox="0 0 841.89 595.28">
  <!-- Generator: Adobe Illustrator 29.5.1, SVG Export Plug-In . SVG Version: 2.1.0 Build 141)  -->
  <defs>
    <style>
      .st0 {
        fill: #231f20;
      }

      .st1 {
        fill: none;
        stroke: #231f20;
        stroke-miterlimit: 10;
      }

      .st2 {
        fill: #fff;
      }
    </style>
  </defs>
  <rect class="st0" x="360" y="237.9" width="121.8" height="121.8"/>
  <line class="st1" x1="597.02" y1="57.76" x2="773.9" y2="57.76"/>
  <line class="st1" x1="597.02" y1="97.78" x2="773.9" y2="97.78"/>
  <line class="st1" x1="597.02" y1="137.81" x2="773.9" y2="137.81"/>
  <line class="st1" x1="597.02" y1="177.83" x2="773.9" y2="177.83"/>
  <line class="st1" x1="597.02" y1="217.86" x2="773.9" y2="217.86"/>
  <line class="st1" x1="597.02" y1="257.88" x2="773.9" y2="257.88"/>
  <line class="st1" x1="597.02" y1="297.91" x2="773.9" y2="297.91"/>
  <line class="st1" x1="597.02" y1="337.93" x2="773.9" y2="337.93"/>
  <line class="st1" x1="597.02" y1="377.96" x2="773.9" y2="377.96"/>
  <line class="st1" x1="597.02" y1="538.06" x2="773.9" y2="538.06"/>
  <line class="st1" x1="597.02" y1="498.03" x2="773.9" y2="498.03"/>
  <line class="st1" x1="597.02" y1="458.01" x2="773.9" y2="458.01"/>
  <line class="st1" x1="597.02" y1="417.98" x2="773.9" y2="417.98"/>
  <g>
    <line class="st1" x1="244.77" y1="297.91" x2="338.63" y2="297.91"/>
    <polygon class="st0" points="337.17 302.9 345.8 297.91 337.17 292.92 337.17 302.9"/>
  </g>
  <g>
    <line class="st1" x1="481.79" y1="300.42" x2="575.65" y2="300.42"/>
    <polygon class="st0" points="574.19 305.41 582.83 300.42 574.19 295.44 574.19 305.41"/>
  </g>
  <line class="st1" x1="67.89" y1="57.76" x2="244.77" y2="57.76"/>
  <line class="st1" x1="67.89" y1="97.78" x2="244.77" y2="97.78"/>
  <line class="st1" x1="67.89" y1="137.81" x2="244.77" y2="137.81"/>
  <line class="st1" x1="67.89" y1="177.83" x2="244.77" y2="177.83"/>
  <line class="st1" x1="67.89" y1="217.86" x2="244.77" y2="217.86"/>
  <line class="st1" x1="67.89" y1="257.88" x2="244.77" y2="257.88"/>
  <line class="st1" x1="67.89" y1="297.91" x2="244.77" y2="297.91"/>
  <line class="st1" x1="67.89" y1="337.93" x2="244.77" y2="337.93"/>
  <line class="st1" x1="67.89" y1="377.96" x2="244.77" y2="377.96"/>
  <line class="st1" x1="73.27" y1="538.06" x2="244.77" y2="538.06"/>
  <line class="st1" x1="73.27" y1="498.03" x2="244.77" y2="498.03"/>
  <line class="st1" x1="73.27" y1="458.01" x2="244.77" y2="458.01"/>
  <line class="st1" x1="73.27" y1="417.98" x2="244.77" y2="417.98"/>
  <line class="st1" x1="244.77" y1="57.76" x2="244.77" y2="538.06"/>
  <line class="st1" x1="597.02" y1="57.76" x2="597.02" y2="538.06"/>
  <g id="expanded">
    <g>
      <path class="st2" d="M398.17,275.66c4.56,0,7.03,2.88,7.3,6.67l-3.48.14c-.22-1.92-1.32-3.6-3.84-3.6s-3.91,1.8-3.91,4.63,1.49,4.63,3.91,4.63,3.62-1.68,3.84-3.6l3.48.14c-.26,3.79-2.74,6.67-7.3,6.67s-7.68-3.19-7.68-7.85,3.31-7.85,7.68-7.85v.02Z"/>
      <path class="st2" d="M414.27,291.36c-4.39,0-7.75-3.19-7.75-7.85s3.36-7.85,7.75-7.85,7.78,3.19,7.78,7.85-3.36,7.85-7.78,7.85ZM414.27,278.85c-2.45,0-4.01,1.85-4.01,4.66s1.56,4.66,4.01,4.66,4.03-1.85,4.03-4.66-1.56-4.66-4.03-4.66Z"/>
      <path class="st2" d="M423.82,275.95h5.86c4.97,0,8.04,2.83,8.04,7.56s-3.07,7.56-8.04,7.56h-5.86v-15.12ZM429.44,288.19c2.86,0,4.51-1.73,4.51-4.7s-1.66-4.66-4.51-4.66h-1.97v9.36h1.97Z"/>
      <path class="st2" d="M451.14,291.07h-11.67v-15.12h11.45v3h-7.87v2.98h6.12v2.95h-6.12v3.19h8.09v3h0Z"/>
      <path class="st2" d="M380.92,314.37c.14,2.09,1.7,2.93,3.58,2.93,1.61,0,2.62-.62,2.62-1.63s-.89-1.25-2.21-1.51l-2.83-.5c-2.4-.46-4.1-1.8-4.1-4.37,0-2.98,2.33-4.82,6-4.82,4.1,0,6.34,2.04,6.41,5.4l-3.36.1c-.1-1.78-1.32-2.64-3.07-2.64-1.54,0-2.4.62-2.4,1.66,0,.86.67,1.18,1.78,1.39l2.83.5c3.1.55,4.51,2.09,4.51,4.56,0,3.12-2.71,4.73-6.17,4.73-4.03,0-6.91-1.99-6.91-5.66l3.34-.12-.02-.02Z"/>
      <path class="st2" d="M404.3,319.87h-11.67v-15.12h11.45v3h-7.87v2.98h6.12v2.95h-6.12v3.19h8.09v3h0Z"/>
      <path class="st2" d="M412.82,304.46c4.56,0,7.03,2.88,7.3,6.67l-3.48.14c-.22-1.92-1.32-3.6-3.84-3.6s-3.91,1.8-3.91,4.63,1.49,4.63,3.91,4.63,3.62-1.68,3.84-3.6l3.48.14c-.26,3.79-2.74,6.67-7.3,6.67s-7.68-3.19-7.68-7.85,3.31-7.85,7.68-7.85v.02Z"/>
      <path class="st2" d="M431.49,319.87c-.31-.41-.5-1.39-.62-3-.12-1.7-.89-2.26-2.4-2.26h-3.05v5.26h-3.58v-15.12h7.3c3.91,0,5.83,1.82,5.83,4.73,0,2.23-1.42,3.62-3.26,3.86,1.61.31,2.52,1.25,2.69,3.02.22,2.23.29,2.95.79,3.5h-3.7ZM428.56,311.8c1.9,0,2.83-.55,2.83-2.04,0-1.34-.94-2.09-2.83-2.09h-3.14v4.13h3.14Z"/>
      <path class="st2" d="M448.6,319.87h-11.67v-15.12h11.45v3h-7.87v2.98h6.12v2.95h-6.12v3.19h8.09v3h0Z"/>
      <path class="st2" d="M455.16,319.87v-12.12h-5.26v-3h14.21v3h-5.33v12.12h-3.62Z"/>
    </g>
  </g>
</svg>