<?xml version="1.0" encoding="UTF-8"?>
<svg xmlns="http://www.w3.org/2000/svg" version="1.1" viewBox="0 0 595.28 841.89">
  <!-- Generator: Adobe Illustrator 29.5.1, SVG Export Plug-In . SVG Version: 2.1.0 Build 141)  -->
  <defs>
    <style>
      .st0 {
        fill: #232323;
      }
    </style>
  </defs>
  <g id="Layer_1">
    <g>
      <path class="st0" d="M301.46,366.89c-3.6,3.51-7.43,7.03-8.33,12.28,3.34-1.29,6.62-2.9,10.15-3.66,9.5-2.04,18.28-1.06,26.69,3.88.57.33,1.11-.08.86,1.09-3.72-.53-10.91.14-13.91,2.5-.36.28-.8,0-.55,1,15.37,1.6,31.86,13.11,35.51,28.5-2.16-1.62-4.53-3.08-7-4.18-.83-.37-2.19-1.27-3.08-.87,11.59,11.63,18.29,29.63,13.81,45.83-1.19-3.1-2.74-6.31-5.04-8.77.37,5.31.64,10.14-.12,15.45-1.56,10.9-6.82,21.12-14.57,28.84l.44-8.77c-18.08,24.93-61.35,26.79-78.63.13-19.87-30.65,11.65-70.57,45.08-60.87,23.97,6.95,16.49,41.51-5.73,37.74-2.24-.38-7.67-2.27-5.01-5.07,8.34,4.28,17.65-1.32,17.65-10.74,0-13.58-16.77-14.61-26.07-9.5-17.03,9.36-20.12,35.45-1.32,44.44,17.1,8.18,37.79-1.4,45.23-18.07,13.21-29.62-9.19-62.64-41.86-58.3,2.57,5.87-1.16,11.21-6.78,13.17-6.02,2.1-9.01.84-13.82,6.35-2.02,2.31-4.65,8.03-7.45,8.77-3.84,1.01-6.88-1.16-8.35-4.61,5.77.19,7.6-6.52,10.74-10.09,1.82-2.06,7.6-4.21,3.71-6.77-6.03-3.98-18.59,2.7-22.54,7.68-1.43,1.8-.86,4.2-4.52,2.71-4.75-1.93-6.97-11.41-2.97-14.59.93-.74,1.66,1.22,2.84,1.59.71.22,1.07.22,1.78,0s5.6-4.52,6.86-5.44c.84-.61,2.8-1.46,3.25-2.03.88-1.12-1.55-2.71.2-5.48,1.85-2.93,5.01-3.59,7.67-5.04,5.61-3.06,3.38-4.11,6.05-8.86,2.26-4.02,6.2-6.44,10.59-7.6l-2.66,10.24c.1.51,1.89.81,2.42.73,1.23-.16,6.18-5.99,7.69-7.26,2.62-2.18,10.08-6.35,13.38-6.35h7.67ZM266.82,391.45c-2.15,1.11-5.33,1.85-7.32,2.98-.44.25-1.13.47-.99,1.15,3.72,4.39,8.67,1.13,8.31-4.13Z"/>
      <path class="st0" d="M261.55,409.87l-5.7,4.16c-3.29,3.52-6.59,7.08-8.71,11.46-2.52,5.22-3.39,13.6-9.26,15.95.96-3.16.97-6.37.88-9.65-3.18.03-6.06.43-8.77-1.53,12.2-4.38,17.57-19.65,31.57-20.39Z"/>
    </g>
    <g>
      <path class="st0" d="M254.42,344.54v-2.45c1.44,1.3,3.17,2.18,5.26,2.18s3.26-.82,3.26-2.45c0-1.32-.67-1.99-3.12-3.05l-1.56-.67c-2.47-1.06-3.72-2.47-3.72-4.58,0-2.76,2.04-4.56,5.45-4.56,2.28,0,3.91.86,4.73,1.66v2.5c-1.27-1.2-2.71-1.97-4.68-1.97s-3.12.72-3.12,2.21c0,1.39.96,1.99,2.81,2.78l1.68.72c2.88,1.22,3.98,2.74,3.98,4.85,0,2.9-2.16,4.78-5.57,4.78-1.87,0-3.82-.6-5.4-1.94Z"/>
      <path class="st0" d="M268.82,329.33h2.33v16.8h-2.33v-16.8Z"/>
      <path class="st0" d="M274.68,337.75c0-4.9,3.24-8.78,8.9-8.78,2.66,0,4.58.82,5.9,1.92v2.52c-1.15-1.08-3.07-2.21-5.86-2.21-4.37,0-6.53,2.81-6.53,6.48,0,3.91,2.42,6.62,6.14,6.62,3.34,0,5.26-1.92,5.42-5.33h-8.52l.48-2.06h10.25v1.22c0,5.47-3,8.35-7.68,8.35-5.09,0-8.52-3.72-8.52-8.74Z"/>
      <path class="st0" d="M294.19,340.18v-10.85h2.33v10.78c0,2.76,1.51,4.27,4.23,4.27s4.22-1.51,4.22-4.27v-10.78h2.33v10.85c0,3.82-2.59,6.31-6.55,6.31s-6.55-2.5-6.55-6.31Z"/>
      <path class="st0" d="M311.78,329.33h6.29c3.1,0,5.04,2.04,5.04,4.8s-2.09,4.78-5.42,4.78h-.29l6.31,7.22h-3.05l-6.55-7.92v7.92h-2.33v-16.8ZM317.21,337.1c2.3,0,3.48-1.08,3.48-2.88s-1.08-2.78-3.1-2.78h-3.48v5.66h3.1Z"/>
      <path class="st0" d="M326.85,329.33h5.71c5.26,0,8.09,3.43,8.09,8.4s-3,8.4-8.57,8.4h-5.23v-16.8ZM338.23,337.73c0-3.79-1.78-6.26-5.9-6.26h-3.14v12.53h2.9c4.13,0,6.14-2.47,6.14-6.26Z"/>
    </g>
  </g>
  <g id="Isolation_Mode">
    <path class="st0" d="M298,537.75l-.61-.27c-7.85-3.52-15.83-8.31-24.4-14.61-44.2-32.57-71.23-84.41-74.21-142.28l-.23-.54v-76.79h197.86v78.5c-.89,31.85-10.51,62.1-28.6,89.97-16.65,25.66-40.2,48.31-68.09,65.52l-.29.18-1.45.32ZM202.57,379.23l.19.44.02.36c2.82,56.81,29.28,107.69,72.6,139.61,8.04,5.93,15.53,10.46,22.87,13.83,27.12-16.85,50.01-38.94,66.22-63.91,17.68-27.24,27.09-56.8,27.96-87.85v-74.45h-189.87v71.97Z"/>
  </g>
</svg>