<?xml version="1.0" encoding="UTF-8"?>
<svg id="Isolation_Mode" xmlns="http://www.w3.org/2000/svg" version="1.1" viewBox="0 0 595.28 841.89">
  <!-- Generator: Adobe Illustrator 29.5.1, SVG Export Plug-In . SVG Version: 2.1.0 Build 141)  -->
  <defs>
    <style>
      .st0 {
        fill: #232323;
      }
    </style>
  </defs>
  <g>
    <path class="st0" d="M269.36,329.33h3.74l4.44,14.19,4.58-14.19h3.55l1.3,16.8h-2.38l-.96-14.83-4.78,14.83h-2.76l-4.68-14.93-.84,14.93h-2.23l1.01-16.8Z"/>
    <path class="st0" d="M295.02,329.33h3.14l5.71,16.8h-2.47l-1.49-4.46h-6.72l-1.46,4.46h-2.4l5.69-16.8ZM299.29,339.74l-2.76-8.33-2.71,8.33h5.47Z"/>
    <path class="st0" d="M306.25,340.17v-10.85h2.33v10.78c0,2.76,1.51,4.27,4.22,4.27s4.22-1.51,4.22-4.27v-10.78h2.33v10.85c0,3.82-2.59,6.31-6.55,6.31s-6.55-2.5-6.55-6.31Z"/>
    <path class="st0" d="M323.84,329.33h2.33v16.8h-2.33v-16.8Z"/>
  </g>
  <path class="st0" d="M324.42,396.72c-1.03,5.76-1.05,11.23.99,16.78,3.35,9.11,11.7,15.54,15.25,24.65,11.36,29.11-9.07,56.36-39.04,58.11,8.86-9.37,17.26-18.96,12.92-32.86-3.22-10.33-13.7-15.73-19.13-24.72l-4.74-9.06c-3.23,5.32-4.52,10.63-3.97,16.89.58,6.65,7.19,14.05,4.75,20.5-1.7,4.51-7.14,3.44-9.48.02-2.07-3.02-2.2-6.77-2.92-10.23-9.33,10.44-4.05,26.77,6.84,33.94l8.28,5.52c-14.57-1.3-31.32-7.24-38.51-20.9-4.09-7.78-5.28-21.09-4.02-29.74.19-1.34.48-4.15,2.19-4.17.31,2.73,2.19,6.01,3.77,8.29,1.3,1.88,3.38,4.81,5.88,4.86.43-3.54-1.87-6.64-2.76-9.73-4.44-15.33,11.2-32.3,20.73-42.68,8.89-9.68,20.61-17.75,17.12-33.09,10.91,6.57,15.26,18.45,12.58,30.78-2,9.21-9.03,17.34-6.77,27.64.75,3.41,4.03,9.15,8.01,9.12,6.96-.05.97-12.44.66-16.03-.84-9.64,4.43-17.82,11.39-23.89Z"/>
  <path class="st0" d="M298,537.75l-.61-.27c-7.85-3.52-15.83-8.31-24.4-14.61-44.2-32.57-71.23-84.41-74.21-142.28l-.23-.54v-76.79h197.86v78.5c-.89,31.85-10.51,62.1-28.6,89.97-16.65,25.66-40.2,48.31-68.09,65.52l-.29.18-1.45.32ZM202.57,379.23l.19.44.02.36c2.82,56.81,29.28,107.69,72.6,139.61,8.04,5.93,15.53,10.46,22.87,13.83,27.12-16.85,50.01-38.94,66.22-63.91,17.68-27.24,27.09-56.8,27.96-87.85v-74.45h-189.87v71.97Z"/>
</svg>