<?xml version="1.0" encoding="UTF-8"?>
<svg xmlns="http://www.w3.org/2000/svg" version="1.1" viewBox="0 0 595.28 841.89">
  <!-- Generator: Adobe Illustrator 29.5.1, SVG Export Plug-In . SVG Version: 2.1.0 Build 141)  -->
  <defs>
    <style>
      .st0 {
        fill: #232323;
      }
    </style>
  </defs>
  <g id="Layer_1">
    <g>
      <path class="st0" d="M305.1,407.03c-2.93-3.17,1.26-9.04,3.84-7.13.63.46.95,5.31,4.35,2.65,3.63-2.84-1.85-8.28-5.83-8.38-6.9-.17-9.92,6.39-7.77,12.35,4.66,12.91,26.4,6.3,35.76,2.85,1.67-.62,10.4-4.88,11.13-4.36l1.81,7.4c23.5.02,18.33,31.42,1.74,38.82-3.36,1.5-6.26,1.29-9.64,2.2-3.01,8.15-9.58,13.72-14.91,20.17-3.12,3.78-5.56,8.57-9.22,11.83-8.6,7.68-21.77,9.1-32.03,3.96-7.6-3.8-10.77-10.78-15.78-17.11s-11.06-12.07-14.45-19.75c-7.1.09-12.96-1.92-17.56-7.44-9.6-11.53-8.32-33.84,10.53-32.68l1.78-7.44c.53-.37,8.1,3.3,9.52,3.82,9.76,3.58,36.97,12.13,38.65-4.54.68-6.77-5.36-11.87-11.9-9.27-2.88,1.14-5.58,5.85-2.34,7.8,3.48,2.09,2.93-2.55,4.51-3.03,3.91-1.17,5.81,5.32,2.47,7.76-4.17,3.05-15.86.36-20.86-.93-6.05-1.57-12.14-3.94-17.48-7.17-.18-1.13,2.56-5.17,3.36-6.26,19.39-26.58,67.89-25.32,86.48,1.58.6.86,3.05,4.12,2.52,4.96-.58.92-12.2,5.58-14.05,6.15-5.1,1.6-20.8,5.34-24.65,1.17ZM316.37,451.45c8.3-1.88,16.3-4.37,19.81-12.86,2.67-6.48,2.39-13.78-2.48-19.16-6.03-6.65-19.86-2.2-28.07-1.75-4.67.26-10.69.26-15.36.02-11.72-.61-30.43-7.17-32.53,10.41-1.61,13.52,8.96,20.84,20.92,22.9l-3.44,5.98c-7.23,20.09,6.94,34.33,27.3,31.68,18.19-2.37,25.18-23.54,13.86-37.22ZM349.55,421.25c-1.76.57-1.03,5.1-1.23,6.69-.66,5.18-1.82,10.41-4.27,15.04l.58.95c10.27-.37,19.44-21.66,4.92-22.67ZM246.14,422.14c-3.51-1.34-6.2-.44-7.52,3.1-2.87,7.71,3.43,19.42,12.41,18.76-3.47-6.72-4.19-14.42-4.89-21.86Z"/>
      <path class="st0" d="M306.61,451.12c2.99,3.03-5.96,6.18-7.27,8.07v7.76c.21.67,5.86,2.39,7.1,2.97s7.36,4.13,7.67,5.05c.23.68.19,1.59-.37,2.13-.57.4-1.15.68-1.88.57-1.27-.19-5.83-3.34-7.79-4.08-5.48-2.06-9.17-1.8-14.58.32-2.78,1.09-5.5,4.11-8.15,2.9-1.62-2.58,4.64-5.83,6.49-6.75,2.15-1.07,4.73-1.91,7.05-2.6l.34-8.25c-1.16-2.58-7.24-4.54-7.4-7.1-.37-5.64,8.3,1.94,9.9,1.94,2.08-.27,7.16-4.68,8.88-2.93Z"/>
      <path class="st0" d="M286.14,437.89c-2.47,9.27-12.42,4.13-8.37-3.98-2.28.04-8.44-1.46-9.13-3.83-2.12-7.29,13.78-1.06,16.38-.13.92.33,3.08,1.66,3.57,1.68.56.03,1.06-.67,1.7-.78,5.55-.95,4.1,6.83-1.02,7.36-1.16.12-2.03-.49-3.14-.33Z"/>
      <path class="st0" d="M311.25,441.65c-.81-.78-1.78-3.62-1.96-3.75-.4-.29-2.28.46-3.47.22-4.76-.95-6.18-7.74-1.08-7.32.98.08,2.03.91,2.56.82.4-.07,3.4-1.74,4.45-2.11,3.1-1.1,9.7-3.63,12.71-3.05,1.14.22,1.95,1.42,2.33,2.47-.73,4.46-6.15,3.61-9.11,5.63,3.87,4.26-2.21,11.15-6.44,7.09Z"/>
    </g>
    <g>
      <path class="st0" d="M274.23,333.14v-2.45c1.44,1.3,3.17,2.18,5.26,2.18s3.26-.82,3.26-2.45c0-1.32-.67-1.99-3.12-3.05l-1.56-.67c-2.47-1.06-3.72-2.47-3.72-4.58,0-2.76,2.04-4.56,5.45-4.56,2.28,0,3.91.86,4.73,1.66v2.5c-1.27-1.2-2.71-1.97-4.68-1.97s-3.12.72-3.12,2.21c0,1.39.96,1.99,2.81,2.78l1.68.72c2.88,1.22,3.98,2.74,3.98,4.85,0,2.9-2.16,4.78-5.57,4.78-1.87,0-3.82-.6-5.4-1.94Z"/>
      <path class="st0" d="M288.42,328.78v-10.85h2.33v10.78c0,2.76,1.51,4.27,4.22,4.27s4.22-1.51,4.22-4.27v-10.78h2.33v10.85c0,3.82-2.59,6.31-6.55,6.31s-6.55-2.5-6.55-6.31Z"/>
      <path class="st0" d="M306.01,317.93h3.53l7.99,14.14v-14.14h2.18v16.8h-3.19l-8.33-14.62v14.62h-2.18v-16.8Z"/>
      <path class="st0" d="M242.67,346.73h2.5l3.26,14.21,3.67-14.21h3.14l3.62,14.23,3.46-14.23h2.47l-4.46,16.8h-2.93l-3.74-14.67-3.77,14.67h-2.95l-4.27-16.8Z"/>
      <path class="st0" d="M267.61,357.58v-10.85h2.33v10.78c0,2.76,1.51,4.27,4.22,4.27s4.22-1.51,4.22-4.27v-10.78h2.33v10.85c0,3.82-2.59,6.31-6.55,6.31s-6.55-2.5-6.55-6.31Z"/>
      <path class="st0" d="M285.2,346.73h2.33v7.54l7.1-7.54h3.12l-7.73,7.78,7.9,9.02h-3.14l-7.25-8.45v8.45h-2.33v-16.8Z"/>
      <path class="st0" d="M298.16,355.13c0-5.06,3.46-8.76,8.4-8.76s8.4,3.7,8.4,8.76-3.46,8.76-8.4,8.76-8.4-3.7-8.4-8.76ZM312.54,355.13c0-3.79-2.3-6.53-5.98-6.53s-5.98,2.74-5.98,6.53,2.3,6.53,5.98,6.53,5.98-2.74,5.98-6.53Z"/>
      <path class="st0" d="M318.49,346.73h3.53l7.99,14.14v-14.14h2.18v16.8h-3.19l-8.33-14.62v14.62h-2.18v-16.8Z"/>
      <path class="st0" d="M335.72,355.15c0-4.9,3.24-8.78,8.9-8.78,2.66,0,4.58.82,5.9,1.92v2.52c-1.15-1.08-3.07-2.21-5.86-2.21-4.37,0-6.53,2.81-6.53,6.48,0,3.91,2.42,6.62,6.14,6.62,3.34,0,5.26-1.92,5.42-5.33h-8.52l.48-2.06h10.25v1.22c0,5.47-3,8.35-7.68,8.35-5.09,0-8.52-3.72-8.52-8.74Z"/>
    </g>
  </g>
  <g id="Isolation_Mode">
    <path class="st0" d="M298,537.75l-.61-.27c-7.85-3.52-15.83-8.31-24.4-14.61-44.2-32.57-71.23-84.41-74.21-142.28l-.23-.54v-76.79h197.86v78.5c-.89,31.85-10.51,62.1-28.6,89.97-16.65,25.66-40.2,48.31-68.09,65.52l-.29.18-1.45.32ZM202.57,379.23l.19.44.02.36c2.82,56.81,29.28,107.69,72.6,139.61,8.04,5.93,15.53,10.46,22.87,13.83,27.12-16.85,50.01-38.94,66.22-63.91,17.68-27.24,27.09-56.8,27.96-87.85v-74.45h-189.87v71.97Z"/>
  </g>
</svg>